<svg width="21" height="31" viewBox="0 0 21 31" fill="none" xmlns="http://www.w3.org/2000/svg">
<path d="M13.4011 13.0785L10.3011 17.6785L5.7011 22.2785C3.85531 20.1816 2.2766 17.8639 1.0011 15.3785L3.5011 11.5785L7.30109 7.97852C6.59826 8.77417 6.2403 9.81642 6.30594 10.876C6.37158 11.9356 6.85544 12.9257 7.65109 13.6285C8.44674 14.3313 9.489 14.6893 10.5486 14.6237C11.6082 14.558 12.5983 14.0742 13.3011 13.2785L13.4011 13.0785V13.0785Z" fill="#ECB72B"/>
<path d="M13.5011 12.9785C14.2172 12.1829 14.5879 11.1353 14.5316 10.0664C14.4754 8.99743 13.9968 7.9946 13.2011 7.27852C12.4055 6.56243 11.3579 6.19175 10.289 6.24801C9.22003 6.30427 8.21721 6.78287 7.50113 7.57852L7.40112 7.77852L10.0011 3.57852L13.5011 0.478516C16.1618 1.29015 18.3916 3.12437 19.7011 5.57852L17.1011 9.77852L13.5011 12.9785Z" fill="#5085F7"/>
<path d="M7.30112 7.97847L1.00113 15.3785C0.367364 13.9262 0.0274927 12.3628 0.00113147 10.7785V10.4785C-0.0354435 7.99811 0.815754 5.58637 2.40113 3.67847L7.30112 7.97847Z" fill="#DA2F2A"/>
<path d="M7.30115 7.97843L2.30115 3.77843C3.63174 2.18157 5.40634 1.01556 7.40016 0.428095C9.39398 -0.159368 11.5173 -0.141852 13.5012 0.478425L7.30115 7.97843Z" fill="#4274EB"/>
<path d="M20.9012 10.4786C20.9094 8.77155 20.4973 7.08871 19.7012 5.57861L5.70117 22.2786C7.36779 24.19 8.59645 26.4426 9.30116 28.8786L9.40117 29.1786C9.40117 29.4438 9.50652 29.6982 9.69406 29.8857C9.8816 30.0733 10.136 30.1786 10.4012 30.1786C10.6664 30.1786 10.9207 30.0733 11.1083 29.8857C11.2958 29.6982 11.4012 29.4438 11.4012 29.1786V28.9786C13.0012 22.1786 20.7012 18.7786 20.9012 10.8786V10.5786V10.4786Z" fill="#60A850"/>
</svg>
