<svg width="30" height="30" viewBox="0 0 30 30" fill="none" xmlns="http://www.w3.org/2000/svg">
<path d="M28 30H2C1.46957 30 0.960859 29.7893 0.585786 29.4142C0.210714 29.0391 0 28.5304 0 28V2C0 1.46957 0.210714 0.960859 0.585786 0.585786C0.960859 0.210714 1.46957 0 2 0L28 0C28.5304 0 29.0391 0.210714 29.4142 0.585786C29.7893 0.960859 30 1.46957 30 2V28C30 28.5304 29.7893 29.0391 29.4142 29.4142C29.0391 29.7893 28.5304 30 28 30ZM14.7 5.7C13.9179 5.72015 13.143 5.85492 12.4 6.1C11.682 6.31895 11.0059 6.65699 10.4 7.1C9.83192 7.53529 9.35603 8.07916 9 8.7C8.66571 9.3132 8.4936 10.0016 8.5 10.7C8.5145 11.4088 8.72193 12.1003 9.1 12.7C9.46996 13.3974 9.98075 14.0103 10.6 14.5C9.92237 14.9543 9.3717 15.5738 9 16.3C8.6351 17.1165 8.46398 18.0064 8.5 18.9C8.48408 19.6528 8.62012 20.401 8.9 21.1C9.18138 21.7417 9.58955 22.32 10.1 22.8C10.6729 23.3628 11.353 23.8049 12.1 24.1C12.8997 24.3934 13.7487 24.5292 14.6 24.5C15.4507 24.5197 16.2979 24.3842 17.1 24.1C17.8309 23.8647 18.5099 23.4913 19.1 23C19.6533 22.4965 20.096 21.8836 20.4 21.2C20.7321 20.5143 20.9031 19.7618 20.9 19V15.6H22.6C22.9575 15.6146 23.3096 15.509 23.6 15.3C23.7256 15.1968 23.8268 15.0671 23.8963 14.9201C23.9658 14.7731 24.0018 14.6126 24.0018 14.45C24.0018 14.2874 23.9658 14.1269 23.8963 13.9799C23.8268 13.8329 23.7256 13.7032 23.6 13.6C23.4716 13.4657 23.3159 13.3606 23.1434 13.2916C22.9709 13.2226 22.7856 13.1913 22.6 13.2H20.8V12.7C20.8286 12.5215 20.8164 12.3388 20.7645 12.1657C20.7125 11.9925 20.6221 11.8333 20.5 11.7C20.2096 11.491 19.8575 11.3854 19.5 11.4C19.1321 11.4214 18.7812 11.5618 18.5 11.8C18.3429 11.8906 18.2134 12.0222 18.1253 12.1807C18.0372 12.3392 17.9939 12.5187 18 12.7V13.2H14.4C13.993 13.1856 13.5896 13.1184 13.2 13C12.8433 12.8849 12.5061 12.7164 12.2 12.5C11.9318 12.3044 11.6956 12.0682 11.5 11.8C11.348 11.4895 11.2791 11.145 11.3 10.8C11.2912 10.412 11.3954 10.0298 11.6 9.7C11.7757 9.38797 12.0141 9.11561 12.3 8.9C12.6407 8.68118 13.0112 8.51278 13.4 8.4C13.7904 8.28474 14.1934 8.21757 14.6 8.2H15.5C15.8462 8.24419 16.1974 8.17395 16.5 8C16.6265 7.88682 16.7276 7.74807 16.7966 7.59293C16.8655 7.43778 16.9008 7.26977 16.9 7.1C16.9008 6.93023 16.8655 6.76222 16.7966 6.60707C16.7276 6.45193 16.6265 6.31318 16.5 6.2C16.2229 5.95511 15.8695 5.81377 15.5 5.8C15.2337 5.77946 14.9663 5.77946 14.7 5.8V5.7ZM14.7 22.1C14.1874 22.0791 13.6812 21.9779 13.2 21.8C12.8222 21.6377 12.4818 21.3994 12.2 21.1C11.7618 20.6234 11.4643 20.0346 11.3407 19.399C11.2171 18.7635 11.2723 18.1061 11.5 17.5C11.6507 17.1158 11.8906 16.7731 12.2 16.5C12.4909 16.2365 12.8306 16.0327 13.2 15.9C13.5544 15.778 13.9253 15.7106 14.3 15.7H18.1V19C18.1 19.4083 18.0324 19.8138 17.9 20.2C17.743 20.5808 17.504 20.9222 17.2 21.2C16.4804 21.7403 15.5996 22.0221 14.7 22V22.1Z" fill="#9FCE4E"/>
<path d="M20.9 15.6001V19.0001C20.8963 19.7612 20.7257 20.5122 20.4 21.2001C20.1071 21.8899 19.6628 22.5051 19.1 23.0001C18.5099 23.4914 17.8309 23.8648 17.1 24.1001C16.3267 24.3615 15.5163 24.4965 14.7 24.5001C13.7822 24.5506 12.8637 24.4145 12 24.1001C11.2848 23.8005 10.6383 23.3581 10.1 22.8001C9.56824 22.2992 9.15782 21.6836 8.9 21.0001C8.62999 20.2983 8.4943 19.552 8.5 18.8001C8.46856 17.9391 8.63983 17.0828 9 16.3001C9.39609 16.2173 9.75274 16.0035 10.0124 15.6932C10.272 15.3828 10.4196 14.994 10.4311 14.5896C10.4427 14.1851 10.3176 13.7885 10.0761 13.4638C9.83458 13.1392 9.49072 12.9053 9.1 12.8001C8.72669 12.1616 8.52033 11.4394 8.5 10.7001C8.52404 9.99282 8.73075 9.30381 9.1 8.7001C9.39988 8.04282 9.84426 7.46171 10.4 7.0001C11.0028 6.55198 11.6798 6.21348 12.4 6.0001C13.1426 5.7536 13.9178 5.61879 14.7 5.6001L15.7 5.7001C16.0385 5.72002 16.3584 5.86216 16.6 6.1001C16.7387 6.20284 16.8484 6.33973 16.9185 6.49744C16.9886 6.65515 17.0167 6.82832 17 7.0001C16.975 7.16031 16.9179 7.3138 16.8319 7.45129C16.746 7.58879 16.6331 7.70745 16.5 7.8001C16.2178 8.0253 15.8595 8.13278 15.5 8.1001C15.2339 8.07524 14.9661 8.07524 14.7 8.1001C14.2921 8.10519 13.8875 8.17264 13.5 8.3001C13.1071 8.40173 12.7349 8.57092 12.4 8.8001C12.0925 8.98215 11.8213 9.21947 11.6 9.5001C11.3954 9.82989 11.2912 10.2121 11.3 10.6001C11.3097 10.9541 11.4132 11.2992 11.6 11.6001C11.7644 11.92 12.0048 12.1947 12.3 12.4001C12.6043 12.5969 12.9439 12.7327 13.3 12.8001C13.6888 12.9405 14.0909 13.041 14.5 13.1001H18V12.5001C17.9922 12.3293 18.0242 12.1591 18.0936 12.0028C18.1631 11.8466 18.268 11.7087 18.4 11.6001C18.6904 11.3911 19.0425 11.2855 19.4 11.3001C19.7575 11.2855 20.1096 11.3911 20.4 11.6001C20.54 11.7241 20.649 11.8791 20.7185 12.0527C20.7879 12.2263 20.8159 12.4138 20.8 12.6001V13.1001H22.5C22.8575 13.0855 23.2096 13.1911 23.5 13.4001C23.632 13.5087 23.7369 13.6466 23.8064 13.8028C23.8758 13.9591 23.9079 14.1293 23.9 14.3001C23.9 14.4553 23.8639 14.6085 23.7944 14.7473C23.725 14.8862 23.6242 15.007 23.5 15.1001C23.3716 15.2344 23.2159 15.3395 23.0434 15.4085C22.8709 15.4775 22.6856 15.5088 22.5 15.5001L20.9 15.6001ZM13.1 15.9001C12.7355 16.0428 12.3974 16.2456 12.1 16.5001C11.8439 16.7964 11.6409 17.1347 11.5 17.5001C11.3468 17.9156 11.2788 18.3577 11.3 18.8001C11.2531 19.6422 11.5406 20.4688 12.1 21.1001C12.4382 21.4409 12.8448 21.7062 13.2929 21.8786C13.741 22.051 14.2206 22.1264 14.7 22.1001C15.5987 22.0873 16.4581 21.7292 17.1 21.1001C17.4101 20.8228 17.6592 20.484 17.8313 20.1052C18.0035 19.7265 18.095 19.3161 18.1 18.9001V15.6001H14.3C13.8914 15.6617 13.4896 15.7622 13.1 15.9001Z" fill="black"/>
</svg>
