<svg width="380" height="370" viewBox="0 0 380 370" fill="none" xmlns="http://www.w3.org/2000/svg">
<rect width="380" height="370" rx="15" fill="white"/>
<mask id="mask0_108_12" style="mask-type:alpha" maskUnits="userSpaceOnUse" x="0" y="0" width="380" height="362">
<rect width="380" height="362" rx="15" fill="#D9D9D9"/>
</mask>
<g mask="url(#mask0_108_12)">
<path d="M153.439 175.723C23.036 185.07 -3.35265 158.866 -114.661 135.332L-137.275 -19.3209L364.151 -93.9999L419.321 211.663C363.839 177.274 257.469 168.266 153.439 175.723Z" fill="#FFD900"/>
</g>
<mask id="mask1_108_12" style="mask-type:alpha" maskUnits="userSpaceOnUse" x="261" y="75" width="119" height="175">
<circle cx="264.5" cy="78.5" r="3.5" fill="white" fill-opacity="0.3"/>
<circle cx="264.5" cy="99.5" r="3.5" fill="white" fill-opacity="0.3"/>
<circle cx="264.5" cy="120.5" r="3.5" fill="white" fill-opacity="0.3"/>
<circle cx="264.5" cy="141.5" r="3.5" fill="white" fill-opacity="0.3"/>
<circle cx="264.5" cy="162.5" r="3.5" fill="white" fill-opacity="0.3"/>
<circle cx="264.5" cy="183.5" r="3.5" fill="white" fill-opacity="0.3"/>
<circle cx="264.5" cy="204.5" r="3.5" fill="white" fill-opacity="0.3"/>
<circle cx="264.5" cy="225.5" r="3.5" fill="white" fill-opacity="0.3"/>
<circle cx="264.5" cy="246.5" r="3.5" fill="white" fill-opacity="0.3"/>
<circle cx="286.9" cy="78.5" r="3.5" fill="white" fill-opacity="0.3"/>
<circle cx="286.9" cy="99.5" r="3.5" fill="white" fill-opacity="0.3"/>
<circle cx="286.9" cy="120.5" r="3.5" fill="white" fill-opacity="0.3"/>
<circle cx="286.9" cy="141.5" r="3.5" fill="white" fill-opacity="0.3"/>
<circle cx="286.9" cy="162.5" r="3.5" fill="white" fill-opacity="0.3"/>
<circle cx="286.9" cy="183.5" r="3.5" fill="white" fill-opacity="0.3"/>
<circle cx="286.9" cy="204.5" r="3.5" fill="white" fill-opacity="0.3"/>
<circle cx="286.9" cy="225.5" r="3.5" fill="white" fill-opacity="0.3"/>
<circle cx="286.9" cy="246.5" r="3.5" fill="white" fill-opacity="0.3"/>
<circle cx="309.3" cy="78.5" r="3.5" fill="white" fill-opacity="0.3"/>
<circle cx="309.3" cy="99.5" r="3.5" fill="white" fill-opacity="0.3"/>
<circle cx="309.3" cy="120.5" r="3.5" fill="white" fill-opacity="0.3"/>
<circle cx="309.3" cy="141.5" r="3.5" fill="white" fill-opacity="0.3"/>
<circle cx="309.3" cy="162.5" r="3.5" fill="white" fill-opacity="0.3"/>
<circle cx="309.3" cy="183.5" r="3.5" fill="white" fill-opacity="0.3"/>
<circle cx="309.3" cy="204.5" r="3.5" fill="white" fill-opacity="0.3"/>
<circle cx="309.3" cy="225.5" r="3.5" fill="white" fill-opacity="0.3"/>
<circle cx="309.3" cy="246.5" r="3.5" fill="white" fill-opacity="0.3"/>
<circle cx="309.3" cy="78.5" r="3.5" fill="white" fill-opacity="0.3"/>
<circle cx="309.3" cy="99.5" r="3.5" fill="white" fill-opacity="0.3"/>
<circle cx="309.3" cy="120.5" r="3.5" fill="white" fill-opacity="0.3"/>
<circle cx="309.3" cy="141.5" r="3.5" fill="white" fill-opacity="0.3"/>
<circle cx="309.3" cy="162.5" r="3.5" fill="white" fill-opacity="0.3"/>
<circle cx="309.3" cy="183.5" r="3.5" fill="white" fill-opacity="0.3"/>
<circle cx="309.3" cy="204.5" r="3.5" fill="white" fill-opacity="0.3"/>
<circle cx="309.3" cy="225.5" r="3.5" fill="white" fill-opacity="0.3"/>
<circle cx="309.3" cy="246.5" r="3.5" fill="white" fill-opacity="0.3"/>
<circle cx="309.3" cy="78.5" r="3.5" fill="white" fill-opacity="0.3"/>
<circle cx="309.3" cy="99.5" r="3.5" fill="white" fill-opacity="0.3"/>
<circle cx="309.3" cy="120.5" r="3.5" fill="white" fill-opacity="0.3"/>
<circle cx="309.3" cy="141.5" r="3.5" fill="white" fill-opacity="0.3"/>
<circle cx="309.3" cy="162.5" r="3.5" fill="white" fill-opacity="0.3"/>
<circle cx="309.3" cy="183.5" r="3.5" fill="white" fill-opacity="0.3"/>
<circle cx="309.3" cy="204.5" r="3.5" fill="white" fill-opacity="0.3"/>
<circle cx="309.3" cy="225.5" r="3.5" fill="white" fill-opacity="0.3"/>
<circle cx="309.3" cy="246.5" r="3.5" fill="white" fill-opacity="0.3"/>
<circle cx="331.7" cy="78.5" r="3.5" fill="white" fill-opacity="0.3"/>
<circle cx="331.7" cy="99.5" r="3.5" fill="white" fill-opacity="0.3"/>
<circle cx="331.7" cy="120.5" r="3.5" fill="white" fill-opacity="0.3"/>
<circle cx="331.7" cy="141.5" r="3.5" fill="white" fill-opacity="0.3"/>
<circle cx="331.7" cy="162.5" r="3.5" fill="white" fill-opacity="0.3"/>
<circle cx="331.7" cy="183.5" r="3.5" fill="white" fill-opacity="0.3"/>
<circle cx="331.7" cy="204.5" r="3.5" fill="white" fill-opacity="0.3"/>
<circle cx="331.7" cy="225.5" r="3.5" fill="white" fill-opacity="0.3"/>
<circle cx="331.7" cy="246.5" r="3.5" fill="white" fill-opacity="0.3"/>
<circle cx="354.1" cy="78.5" r="3.5" fill="white" fill-opacity="0.3"/>
<circle cx="354.1" cy="99.5" r="3.5" fill="white" fill-opacity="0.3"/>
<circle cx="354.1" cy="120.5" r="3.5" fill="white" fill-opacity="0.3"/>
<circle cx="354.1" cy="141.5" r="3.5" fill="white" fill-opacity="0.3"/>
<circle cx="354.1" cy="162.5" r="3.5" fill="white" fill-opacity="0.3"/>
<circle cx="354.1" cy="183.5" r="3.5" fill="white" fill-opacity="0.3"/>
<circle cx="354.1" cy="204.5" r="3.5" fill="white" fill-opacity="0.3"/>
<circle cx="354.1" cy="225.5" r="3.5" fill="white" fill-opacity="0.3"/>
<circle cx="354.1" cy="246.5" r="3.5" fill="white" fill-opacity="0.3"/>
<circle cx="376.5" cy="78.5" r="3.5" fill="white" fill-opacity="0.3"/>
<circle cx="376.5" cy="99.5" r="3.5" fill="white" fill-opacity="0.3"/>
<circle cx="376.5" cy="120.5" r="3.5" fill="white" fill-opacity="0.3"/>
<circle cx="376.5" cy="141.5" r="3.5" fill="white" fill-opacity="0.3"/>
<circle cx="376.5" cy="162.5" r="3.5" fill="white" fill-opacity="0.3"/>
<circle cx="376.5" cy="183.5" r="3.5" fill="white" fill-opacity="0.3"/>
<circle cx="376.5" cy="204.5" r="3.5" fill="white" fill-opacity="0.3"/>
<circle cx="376.5" cy="225.5" r="3.5" fill="white" fill-opacity="0.3"/>
<circle cx="376.5" cy="246.5" r="3.5" fill="white" fill-opacity="0.3"/>
<circle cx="264.5" cy="78.5" r="3.5" fill="white" fill-opacity="0.3"/>
<circle cx="264.5" cy="99.5" r="3.5" fill="white" fill-opacity="0.3"/>
<circle cx="264.5" cy="120.5" r="3.5" fill="white" fill-opacity="0.3"/>
<circle cx="264.5" cy="141.5" r="3.5" fill="white" fill-opacity="0.3"/>
<circle cx="264.5" cy="162.5" r="3.5" fill="white" fill-opacity="0.3"/>
<circle cx="264.5" cy="183.5" r="3.5" fill="white" fill-opacity="0.3"/>
<circle cx="264.5" cy="204.5" r="3.5" fill="white" fill-opacity="0.3"/>
<circle cx="264.5" cy="225.5" r="3.5" fill="white" fill-opacity="0.3"/>
<circle cx="264.5" cy="246.5" r="3.5" fill="white" fill-opacity="0.3"/>
<circle cx="286.9" cy="78.5" r="3.5" fill="white" fill-opacity="0.3"/>
<circle cx="286.9" cy="99.5" r="3.5" fill="white" fill-opacity="0.3"/>
<circle cx="286.9" cy="120.5" r="3.5" fill="white" fill-opacity="0.3"/>
<circle cx="286.9" cy="141.5" r="3.5" fill="white" fill-opacity="0.3"/>
<circle cx="286.9" cy="162.5" r="3.5" fill="white" fill-opacity="0.3"/>
<circle cx="286.9" cy="183.5" r="3.5" fill="white" fill-opacity="0.3"/>
<circle cx="286.9" cy="204.5" r="3.5" fill="white" fill-opacity="0.3"/>
<circle cx="286.9" cy="225.5" r="3.5" fill="white" fill-opacity="0.3"/>
<circle cx="286.9" cy="246.5" r="3.5" fill="white" fill-opacity="0.3"/>
<circle cx="309.3" cy="78.5" r="3.5" fill="white" fill-opacity="0.3"/>
<circle cx="309.3" cy="99.5" r="3.5" fill="white" fill-opacity="0.3"/>
<circle cx="309.3" cy="120.5" r="3.5" fill="white" fill-opacity="0.3"/>
<circle cx="309.3" cy="141.5" r="3.5" fill="white" fill-opacity="0.3"/>
<circle cx="309.3" cy="162.5" r="3.5" fill="white" fill-opacity="0.3"/>
<circle cx="309.3" cy="183.5" r="3.5" fill="white" fill-opacity="0.3"/>
<circle cx="309.3" cy="204.5" r="3.5" fill="white" fill-opacity="0.3"/>
<circle cx="309.3" cy="225.5" r="3.5" fill="white" fill-opacity="0.3"/>
<circle cx="309.3" cy="246.5" r="3.5" fill="white" fill-opacity="0.3"/>
<circle cx="309.3" cy="78.5" r="3.5" fill="white" fill-opacity="0.3"/>
<circle cx="309.3" cy="99.5" r="3.5" fill="white" fill-opacity="0.3"/>
<circle cx="309.3" cy="120.5" r="3.5" fill="white" fill-opacity="0.3"/>
<circle cx="309.3" cy="141.5" r="3.5" fill="white" fill-opacity="0.3"/>
<circle cx="309.3" cy="162.5" r="3.5" fill="white" fill-opacity="0.3"/>
<circle cx="309.3" cy="183.5" r="3.5" fill="white" fill-opacity="0.3"/>
<circle cx="309.3" cy="204.5" r="3.5" fill="white" fill-opacity="0.3"/>
<circle cx="309.3" cy="225.5" r="3.5" fill="white" fill-opacity="0.3"/>
<circle cx="309.3" cy="246.5" r="3.5" fill="white" fill-opacity="0.3"/>
<circle cx="309.3" cy="78.5" r="3.5" fill="white" fill-opacity="0.3"/>
<circle cx="309.3" cy="99.5" r="3.5" fill="white" fill-opacity="0.3"/>
<circle cx="309.3" cy="120.5" r="3.5" fill="white" fill-opacity="0.3"/>
<circle cx="309.3" cy="141.5" r="3.5" fill="white" fill-opacity="0.3"/>
<circle cx="309.3" cy="162.5" r="3.5" fill="white" fill-opacity="0.3"/>
<circle cx="309.3" cy="183.5" r="3.5" fill="white" fill-opacity="0.3"/>
<circle cx="309.3" cy="204.5" r="3.5" fill="white" fill-opacity="0.3"/>
<circle cx="309.3" cy="225.5" r="3.5" fill="white" fill-opacity="0.3"/>
<circle cx="309.3" cy="246.5" r="3.5" fill="white" fill-opacity="0.3"/>
<circle cx="331.7" cy="78.5" r="3.5" fill="white" fill-opacity="0.3"/>
<circle cx="331.7" cy="99.5" r="3.5" fill="white" fill-opacity="0.3"/>
<circle cx="331.7" cy="120.5" r="3.5" fill="white" fill-opacity="0.3"/>
<circle cx="331.7" cy="141.5" r="3.5" fill="white" fill-opacity="0.3"/>
<circle cx="331.7" cy="162.5" r="3.5" fill="white" fill-opacity="0.3"/>
<circle cx="331.7" cy="183.5" r="3.5" fill="white" fill-opacity="0.3"/>
<circle cx="331.7" cy="204.5" r="3.5" fill="white" fill-opacity="0.3"/>
<circle cx="331.7" cy="225.5" r="3.5" fill="white" fill-opacity="0.3"/>
<circle cx="331.7" cy="246.5" r="3.5" fill="white" fill-opacity="0.3"/>
<circle cx="354.1" cy="99.5" r="3.5" fill="white" fill-opacity="0.3"/>
<circle cx="354.1" cy="120.5" r="3.5" fill="white" fill-opacity="0.3"/>
<circle cx="354.1" cy="141.5" r="3.5" fill="white" fill-opacity="0.3"/>
<circle cx="354.1" cy="162.5" r="3.5" fill="white" fill-opacity="0.3"/>
<circle cx="354.1" cy="183.5" r="3.5" fill="white" fill-opacity="0.3"/>
<circle cx="354.1" cy="204.5" r="3.5" fill="white" fill-opacity="0.3"/>
<circle cx="354.1" cy="225.5" r="3.5" fill="white" fill-opacity="0.3"/>
<circle cx="354.1" cy="246.5" r="3.5" fill="white" fill-opacity="0.3"/>
<circle cx="376.5" cy="78.5" r="3.5" fill="white" fill-opacity="0.3"/>
<circle cx="376.5" cy="99.5" r="3.5" fill="white" fill-opacity="0.3"/>
<circle cx="376.5" cy="120.5" r="3.5" fill="white" fill-opacity="0.3"/>
<circle cx="376.5" cy="141.5" r="3.5" fill="white" fill-opacity="0.3"/>
<circle cx="376.5" cy="162.5" r="3.5" fill="white" fill-opacity="0.3"/>
<circle cx="376.5" cy="183.5" r="3.5" fill="white" fill-opacity="0.3"/>
<circle cx="376.5" cy="204.5" r="3.5" fill="white" fill-opacity="0.3"/>
<circle cx="376.5" cy="225.5" r="3.5" fill="white" fill-opacity="0.3"/>
<circle cx="376.5" cy="246.5" r="3.5" fill="white" fill-opacity="0.3"/>
</mask>
<g mask="url(#mask1_108_12)">
<rect y="-24" width="380" height="371" rx="15" fill="white" fill-opacity="0.3"/>
</g>
</svg>
