<svg width="24" height="30" viewBox="0 0 24 30" fill="none" xmlns="http://www.w3.org/2000/svg">
<path fill-rule="evenodd" clip-rule="evenodd" d="M11.9004 0C10.3245 0.0130776 8.76666 0.336433 7.31576 0.951603C5.86485 1.56677 4.54933 2.46171 3.4443 3.58531C2.33927 4.70891 1.46639 6.03917 0.875481 7.50012C0.284577 8.96108 -0.0127669 10.5241 0.000420164 12.1C0.0387225 15.198 1.25428 18.1654 3.40041 20.4C5.50041 22.5 10.7004 25.8 11.0004 29C10.9957 29.2339 11.0732 29.4621 11.2194 29.6449C11.3655 29.8276 11.5711 29.9532 11.8004 30H11.9004C12.1391 30 12.368 29.9052 12.5368 29.7364C12.7056 29.5676 12.8004 29.3387 12.8004 29.1C13.1004 25.8 18.2004 22.7 20.4004 20.5C21.5257 19.3918 22.4212 18.0723 23.0354 16.6172C23.6497 15.1621 23.9707 13.6001 23.98 12.0208C23.9893 10.4414 23.6867 8.87571 23.0896 7.41353C22.4925 5.95134 21.6126 4.62141 20.5004 3.5C18.1894 1.27244 15.1101 0.0192352 11.9004 0ZM7.50042 12.2C7.50042 11.3298 7.75847 10.4791 8.24195 9.75549C8.72543 9.03191 9.41261 8.46796 10.2166 8.13493C11.0206 7.8019 11.9053 7.71477 12.7588 7.88454C13.6123 8.05432 14.3963 8.47338 15.0117 9.08873C15.627 9.70408 16.0461 10.4881 16.2159 11.3416C16.3856 12.1951 16.2985 13.0798 15.9655 13.8838C15.6325 14.6878 15.0685 15.375 14.3449 15.8585C13.6214 16.3419 12.7707 16.6 11.9004 16.6C11.3226 16.6 10.7504 16.4862 10.2166 16.2651C9.68277 16.0439 9.19773 15.7198 8.78915 15.3113C8.38057 14.9027 8.05647 14.4176 7.83535 13.8838C7.61423 13.35 7.50042 12.7778 7.50042 12.2Z" fill="#FF4433"/>
</svg>
