<svg width="27" height="30" viewBox="0 0 27 30" fill="none" xmlns="http://www.w3.org/2000/svg">
<path d="M13.5001 2.2L2.10012 4.8V15C2.09507 18.1587 3.2315 21.2129 5.30012 23.6C7.36307 25.9485 10.2032 27.4751 13.3001 27.9H13.5001C16.597 27.4751 19.4372 25.9485 21.5001 23.6C23.5326 21.1986 24.633 18.1459 24.6001 15V5L13.4001 2.3M13.4001 0.1L13.9001 0.2L25.1001 2.8L26.8001 3.2V14.9C26.8147 18.5708 25.5005 22.1228 23.1001 24.9C20.7086 27.6387 17.4037 29.4156 13.8001 29.9H13.7001L13.4001 30H13.0001C9.38247 29.4893 6.07557 27.6759 3.70012 24.9C1.29975 22.1228 -0.0145008 18.5708 0.000120699 14.9V3.2L1.60012 2.8L13.1001 0L13.4001 0.1Z" fill="#1B70CA"/>
<path d="M4.30005 23.7999L12.1001 15.0999L16.1001 18.0999L25.8 4.3999" stroke="#1B70CA" stroke-width="2"/>
</svg>
